<?xml version="1.0" standalone="no"?>
<!DOCTYPE svg PUBLIC "-//W3C//DTD SVG 20010904//EN"
 "http://www.w3.org/TR/2001/REC-SVG-20010904/DTD/svg10.dtd">
<svg version="1.0" xmlns="http://www.w3.org/2000/svg"
 width="512.000000pt" height="512.000000pt" viewBox="0 0 512.000000 512.000000"
 preserveAspectRatio="xMidYMid meet">

<g transform="translate(0.000000,512.000000) scale(0.100000,-0.100000)"
fill="#000000" stroke="none">
<path d="M2467 5106 c-68 -19 -103 -46 -376 -287 -183 -162 -246 -224 -268
-263 l-28 -51 0 -320 0 -320 27 -52 c34 -64 44 -72 425 -337 172 -119 322
-229 333 -243 11 -14 20 -34 20 -44 0 -10 -81 -182 -181 -381 l-181 -363 4
-70 c4 -65 19 -102 202 -519 125 -286 194 -456 191 -467 -4 -11 -15 -19 -28
-19 -30 1 -1018 758 -1035 793 -12 24 -4 55 80 334 104 344 112 400 71 479
-24 45 -91 110 -129 124 -13 5 -239 67 -502 137 -521 140 -576 149 -652 109
-39 -21 -325 -270 -366 -319 -64 -76 -89 -201 -61 -298 32 -108 117 -202 209
-231 l38 -11 0 -1141 c1 -902 4 -1149 14 -1177 20 -56 61 -103 118 -135 l53
-29 2095 -3 c2301 -2 2155 -6 2232 58 20 16 48 53 62 82 l26 52 0 1142 0 1143
64 30 c74 36 128 91 165 170 22 47 26 69 25 141 -1 96 -20 152 -75 214 -17 20
-198 184 -400 363 l-368 325 -3 517 -3 516 -23 47 c-13 27 -42 64 -65 83 -65
56 -113 65 -337 65 -224 0 -272 -9 -337 -65 -67 -57 -85 -108 -92 -263 l-6
-134 -325 288 c-224 198 -341 294 -377 311 -65 30 -169 38 -236 19z m163 -174
c19 -9 542 -466 1161 -1014 1190 -1053 1159 -1023 1159 -1106 -1 -43 -35 -107
-71 -133 -46 -32 -141 -38 -184 -11 -16 11 -217 185 -445 387 -422 374 -496
440 -1230 1089 -228 202 -425 369 -437 372 -13 4 -33 3 -45 0 -13 -3 -147
-114 -298 -246 l-275 -240 -3 204 c-2 149 1 213 10 234 17 38 494 460 533 471
48 15 88 12 125 -7z m1414 -162 c55 -20 56 -33 56 -481 0 -402 0 -411 -19
-398 -10 8 -127 110 -260 228 l-241 214 0 179 c0 194 9 240 52 258 31 12 380
13 412 0z m-475 -1340 c771 -682 1014 -892 1060 -915 l60 -30 1 -1127 c0 -619
-3 -1134 -6 -1143 -17 -44 -26 -45 -708 -45 l-645 0 -3 718 -3 717 -29 53
c-28 50 -61 82 -116 113 -19 11 -86 15 -274 19 l-249 5 -123 283 c-68 156
-124 295 -124 308 0 13 80 183 177 377 l177 352 1 70 c0 59 -5 78 -29 122 -34
62 -33 61 -424 333 l-293 204 28 28 c58 58 508 447 515 445 4 -1 457 -400
1007 -887z m-2831 -277 c100 -26 182 -50 181 -53 -1 -12 -481 -426 -506 -437
-137 -59 -281 74 -229 212 14 34 43 67 137 151 170 151 199 174 217 174 10 1
99 -21 200 -47z m602 -159 c152 -39 190 -53 213 -75 15 -15 27 -36 27 -47 0
-10 -38 -147 -85 -303 -47 -156 -90 -304 -96 -328 -13 -59 4 -138 41 -189 21
-30 278 -237 419 -338 2 -2 -7 -17 -19 -34 -50 -70 -50 -75 -50 -817 l0 -693
-649 0 -649 0 -31 26 -31 26 0 1132 0 1131 58 26 c43 20 129 90 346 283 187
165 295 255 305 252 9 -3 99 -26 201 -52z m1794 -1405 l26 -31 0 -694 0 -694
-600 0 -600 0 0 688 c0 712 2 739 41 736 8 -1 120 -82 249 -181 129 -99 249
-188 267 -197 18 -9 56 -16 86 -16 108 0 193 75 204 182 5 48 1 65 -31 139
-20 47 -36 88 -36 92 0 4 83 7 184 7 l184 0 26 -31z"/>
<path d="M1151 4595 c-41 -19 -257 -219 -278 -258 -27 -52 -20 -107 22 -183
119 -218 206 -353 240 -374 46 -28 121 -30 167 -3 37 21 282 320 304 370 19
44 18 102 -3 140 -25 45 -287 291 -328 309 -43 18 -81 17 -124 -1z m182 -272
c61 -60 110 -111 109 -116 -1 -4 -50 -69 -109 -143 -98 -127 -107 -135 -120
-118 -8 11 -52 86 -100 167 l-85 149 88 83 c49 46 93 84 98 85 4 0 58 -48 119
-107z"/>
<path d="M285 4258 c-142 -8 -164 -12 -201 -33 -71 -42 -84 -82 -84 -266 0
-177 13 -220 72 -257 19 -12 126 -44 239 -71 162 -39 213 -48 241 -42 78 18
128 80 128 160 0 53 -48 394 -59 424 -20 51 -99 100 -156 96 -11 -1 -92 -6
-180 -11z m204 -329 c12 -89 20 -163 18 -165 -2 -3 -79 14 -171 37 l-166 41 0
119 0 118 48 4 c26 2 92 4 148 5 l101 2 22 -161z"/>
</g>
</svg>
