<?xml version="1.0" standalone="no"?>
<!DOCTYPE svg PUBLIC "-//W3C//DTD SVG 20010904//EN"
 "http://www.w3.org/TR/2001/REC-SVG-20010904/DTD/svg10.dtd">
<svg version="1.0" xmlns="http://www.w3.org/2000/svg"
 width="512.000000pt" height="512.000000pt" viewBox="0 0 512.000000 512.000000"
 preserveAspectRatio="xMidYMid meet">

<g transform="translate(0.000000,512.000000) scale(0.100000,-0.100000)"
fill="#000000" stroke="none">
<path d="M2495 5106 c-41 -18 -2466 -2526 -2484 -2568 -27 -66 -2 -144 63
-192 25 -20 43 -21 257 -24 l229 -3 2 -1109 c3 -1102 3 -1109 24 -1136 11 -15
33 -37 48 -48 l27 -21 1899 0 1899 0 27 21 c15 11 37 33 48 48 21 27 21 34 24
1136 l2 1109 229 3 c214 3 232 4 257 24 65 48 90 126 63 192 -8 18 -156 179
-329 358 l-315 327 -5 768 c-5 759 -5 768 -26 796 -11 15 -36 38 -54 51 l-34
23 -522 -3 -523 -3 -31 -30 c-49 -47 -54 -62 -60 -186 l-5 -116 -275 285
c-163 169 -288 290 -307 298 -40 17 -89 17 -128 0z m425 -750 c242 -250 364
-369 391 -381 50 -23 109 -15 155 20 60 46 64 67 64 320 l0 225 305 0 305 0 0
-705 c0 -636 2 -709 16 -738 9 -18 109 -127 221 -244 l204 -211 -120 -4 c-130
-3 -150 -11 -195 -72 -21 -27 -21 -34 -24 -1137 l-2 -1109 -1680 0 -1680 0 -2
1109 c-3 1103 -3 1110 -24 1137 -45 60 -66 69 -194 74 l-118 5 1005 1038 c552
570 1008 1037 1013 1037 5 0 167 -164 360 -364z"/>
<path d="M1575 3184 c-259 -55 -467 -267 -520 -533 -38 -187 12 -286 145 -286
99 0 147 51 161 169 16 146 92 257 213 313 52 24 74 28 146 28 72 0 94 -4 146
-28 121 -56 197 -167 213 -313 14 -118 62 -169 161 -169 133 0 183 99 145 286
-75 374 -437 611 -810 533z"/>
<path d="M3265 3186 c-279 -65 -475 -263 -531 -536 -37 -186 13 -285 146 -285
99 0 147 51 161 169 16 146 92 257 213 313 52 24 74 28 146 28 72 0 94 -4 146
-28 121 -56 197 -167 213 -313 14 -118 62 -169 161 -169 63 0 95 16 134 69 31
42 28 183 -7 291 -90 277 -332 459 -622 471 -64 2 -122 -1 -160 -10z"/>
<path d="M2375 2149 c-319 -44 -601 -184 -830 -414 -265 -264 -416 -609 -419
-957 -1 -127 6 -146 68 -192 39 -29 133 -29 172 0 56 42 67 66 75 176 9 129
23 208 54 303 91 278 291 514 546 645 330 170 695 173 1022 9 211 -106 381
-273 487 -480 82 -160 113 -273 129 -473 8 -114 19 -138 75 -180 39 -29 133
-29 172 0 63 47 69 65 67 197 -4 347 -154 689 -418 952 -209 210 -459 344
-746 400 -100 20 -356 28 -454 14z"/>
</g>
</svg>
